<mxfile host="65bd71144e">
    <diagram id="q5MAIJp2gxT6aV0ShS8M" name="Page-1">
        <mxGraphModel dx="1088" dy="397" grid="1" gridSize="10" guides="1" tooltips="1" connect="1" arrows="1" fold="1" page="1" pageScale="1" pageWidth="827" pageHeight="1169" math="0" shadow="0">
            <root>
                <mxCell id="0"/>
                <mxCell id="1" parent="0"/>
                <mxCell id="IgK7sfxDjQNwS2CaVDCR-1" value="Elevator" style="swimlane;" parent="1" vertex="1">
                    <mxGeometry x="314" y="170" width="200" height="290" as="geometry"/>
                </mxCell>
                <mxCell id="IgK7sfxDjQNwS2CaVDCR-2" value="Call Elevator" style="ellipse;whiteSpace=wrap;html=1;" parent="IgK7sfxDjQNwS2CaVDCR-1" vertex="1">
                    <mxGeometry x="40" y="50" width="120" height="30" as="geometry"/>
                </mxCell>
                <mxCell id="IgK7sfxDjQNwS2CaVDCR-3" value="Choose a Floor" style="ellipse;whiteSpace=wrap;html=1;" parent="IgK7sfxDjQNwS2CaVDCR-1" vertex="1">
                    <mxGeometry x="40" y="110" width="120" height="30" as="geometry"/>
                </mxCell>
                <mxCell id="IgK7sfxDjQNwS2CaVDCR-4" value="Disable/Enable Elevator" style="ellipse;whiteSpace=wrap;html=1;" parent="IgK7sfxDjQNwS2CaVDCR-1" vertex="1">
                    <mxGeometry x="27.5" y="170" width="145" height="30" as="geometry"/>
                </mxCell>
                <mxCell id="IgK7sfxDjQNwS2CaVDCR-6" value="Open Maintenance Hatch" style="ellipse;whiteSpace=wrap;html=1;" parent="IgK7sfxDjQNwS2CaVDCR-1" vertex="1">
                    <mxGeometry x="20" y="230" width="160" height="30" as="geometry"/>
                </mxCell>
                <mxCell id="IgK7sfxDjQNwS2CaVDCR-9" style="rounded=0;orthogonalLoop=1;jettySize=auto;html=1;exitX=0.5;exitY=0.5;exitDx=0;exitDy=0;exitPerimeter=0;endArrow=none;endFill=0;" parent="1" source="IgK7sfxDjQNwS2CaVDCR-7" target="IgK7sfxDjQNwS2CaVDCR-2" edge="1">
                    <mxGeometry relative="1" as="geometry"/>
                </mxCell>
                <mxCell id="IgK7sfxDjQNwS2CaVDCR-10" style="edgeStyle=none;rounded=0;orthogonalLoop=1;jettySize=auto;html=1;exitX=0.5;exitY=0.5;exitDx=0;exitDy=0;exitPerimeter=0;entryX=0;entryY=0.5;entryDx=0;entryDy=0;endArrow=none;endFill=0;" parent="1" source="IgK7sfxDjQNwS2CaVDCR-7" target="IgK7sfxDjQNwS2CaVDCR-3" edge="1">
                    <mxGeometry relative="1" as="geometry"/>
                </mxCell>
                <mxCell id="IgK7sfxDjQNwS2CaVDCR-7" value="User" style="shape=umlActor;verticalLabelPosition=bottom;verticalAlign=top;html=1;outlineConnect=0;" parent="1" vertex="1">
                    <mxGeometry x="220" y="190" width="30" height="60" as="geometry"/>
                </mxCell>
                <mxCell id="IgK7sfxDjQNwS2CaVDCR-11" style="edgeStyle=none;rounded=0;orthogonalLoop=1;jettySize=auto;html=1;exitX=0.5;exitY=0.5;exitDx=0;exitDy=0;exitPerimeter=0;entryX=0;entryY=0.5;entryDx=0;entryDy=0;endArrow=none;endFill=0;" parent="1" source="IgK7sfxDjQNwS2CaVDCR-8" target="IgK7sfxDjQNwS2CaVDCR-2" edge="1">
                    <mxGeometry relative="1" as="geometry"/>
                </mxCell>
                <mxCell id="IgK7sfxDjQNwS2CaVDCR-12" style="edgeStyle=none;rounded=0;orthogonalLoop=1;jettySize=auto;html=1;exitX=0.5;exitY=0.5;exitDx=0;exitDy=0;exitPerimeter=0;entryX=0;entryY=0.5;entryDx=0;entryDy=0;endArrow=none;endFill=0;" parent="1" source="IgK7sfxDjQNwS2CaVDCR-8" target="IgK7sfxDjQNwS2CaVDCR-3" edge="1">
                    <mxGeometry relative="1" as="geometry"/>
                </mxCell>
                <mxCell id="IgK7sfxDjQNwS2CaVDCR-13" style="edgeStyle=none;rounded=0;orthogonalLoop=1;jettySize=auto;html=1;exitX=0.5;exitY=0.5;exitDx=0;exitDy=0;exitPerimeter=0;entryX=0;entryY=0.5;entryDx=0;entryDy=0;endArrow=none;endFill=0;" parent="1" source="IgK7sfxDjQNwS2CaVDCR-8" target="IgK7sfxDjQNwS2CaVDCR-4" edge="1">
                    <mxGeometry relative="1" as="geometry"/>
                </mxCell>
                <mxCell id="IgK7sfxDjQNwS2CaVDCR-14" style="edgeStyle=none;rounded=0;orthogonalLoop=1;jettySize=auto;html=1;exitX=0.5;exitY=0.5;exitDx=0;exitDy=0;exitPerimeter=0;entryX=0;entryY=0.5;entryDx=0;entryDy=0;endArrow=none;endFill=0;" parent="1" source="IgK7sfxDjQNwS2CaVDCR-8" target="IgK7sfxDjQNwS2CaVDCR-6" edge="1">
                    <mxGeometry relative="1" as="geometry"/>
                </mxCell>
                <mxCell id="IgK7sfxDjQNwS2CaVDCR-8" value="Maintenance" style="shape=umlActor;verticalLabelPosition=bottom;verticalAlign=top;html=1;outlineConnect=0;" parent="1" vertex="1">
                    <mxGeometry x="220" y="350" width="30" height="60" as="geometry"/>
                </mxCell>
            </root>
        </mxGraphModel>
    </diagram>
</mxfile>